<svg width="595" height="137" viewBox="0 0 595 137" fill="none" xmlns="http://www.w3.org/2000/svg">
<g clip-path="url(#clip0_148_63)">
<path d="M206.869 0H203.539C170.672 0 143.941 27.529 143.941 61.3489V75.6376C143.941 109.471 170.685 136.987 203.539 136.987H206.869C239.737 136.987 266.467 109.458 266.467 75.6376V61.3489C266.467 27.5156 239.724 0 206.869 0M206.869 10.9955C233.848 10.9955 255.785 33.5913 255.785 61.3489V75.6376C255.785 103.409 233.835 125.991 206.869 125.991H203.539C176.561 125.991 154.623 103.395 154.623 75.6376V61.3489C154.623 33.5779 176.574 10.9955 203.539 10.9955H206.869Z" fill="white"/>
<path d="M328.82 1.85352H318.139V135.103H328.82V1.85352Z" fill="white"/>
<path d="M368.664 67.2504C366.157 67.1563 363.754 68.03 361.913 69.7775L358.087 73.4068C357.434 74.0251 356.572 74.3477 355.684 74.3074C354.796 74.2671 353.974 73.8772 353.373 73.2051C352.772 72.533 352.459 71.6459 352.498 70.7318C352.537 69.8178 352.916 68.9709 353.569 68.3526L423.77 1.88232H409.968L347.236 61.2553C344.741 63.6211 343.292 66.8337 343.148 70.3151C343.005 73.7966 344.193 77.1302 346.478 79.6976C351.205 84.9937 359.249 85.3432 364.407 80.4638L368.207 76.8345L419.174 135.119H431.749L375.154 70.4092C373.47 68.487 371.171 67.3579 368.664 67.2369" fill="white"/>
<path d="M578.001 97.5753C576.473 94.2148 573.156 92.0372 569.552 92.0372H554.692C553.778 92.0372 552.929 91.6609 552.289 90.9888C551.649 90.3167 551.323 89.4295 551.349 88.4886C551.401 86.6874 553.086 85.155 555.018 85.155H559.863C562.592 85.155 565.112 83.7436 566.575 81.3644C568.05 78.9851 568.233 76.0548 567.071 73.5008L534.647 1.88232H524.331L463.963 135.132H474.279L529.489 13.2542L557.708 75.544H555.031C548.058 75.544 542.221 81.2165 542.012 88.2063C541.908 91.7684 543.174 95.1423 545.59 97.6963C548.006 100.25 551.231 101.662 554.692 101.662H569.526L584.7 135.132H595.016L578.001 97.5753Z" fill="white"/>
<path d="M10.6817 135.132L10.7339 12.8773H63.0192C75.8424 12.8773 86.276 23.6174 86.276 36.8174V41.6161C86.276 54.8161 75.8424 65.5562 63.0192 65.5562H59.0756C54.2179 65.5562 49.8956 68.3521 47.8063 72.8551C45.7039 77.3582 46.2916 82.5736 49.3211 86.4718L87.19 135.118H100.875L57.6523 79.603C56.699 78.3663 57.5478 76.5517 59.0756 76.5517H63.0192C81.7578 76.5517 96.9576 60.9053 96.9576 41.6161V36.8174C96.9576 17.5282 81.7578 1.88184 63.0192 1.88184H0.0522331L0 135.132H10.6817Z" fill="white"/>
</g>
<defs>
<clipPath id="clip0_148_63">
<rect width="595" height="137" fill="white"/>
</clipPath>
</defs>
</svg>
